:SAMPLES-PER-SECOND 30
:FULLY-SPECIFIED
:DEGREES
94
root  -2.51153 39.8646 -3.77868 76.2189 -86.7295 -83.8278
RightUpLeg  -0.72838 -11.8746 2.46194
RightLeg  19.8092 -2.91332 2.44772
RightFoot  -10.1862 -0.0298281 -3.86814
RightToes  1.74622e-010 0 -3.6325e-017
Spine  5.29394 0.239543 14.3259
Spine1  11.0558 2.47865 -3.30186
HEad  -4.72346 -0.213414 -3.85759
LeftShoulder1  8.99671 -12.5612 -48.8887
LeftArm  -0.451639 19.0986 -28.7157
LeftForeArm  21.0574 -22.0115 -3.89266
LeftHand  -0.244104 0.0205437 5.32207
RightShoulder  6.61397 10.2605 41.801
RightArm  9.0091 5.0798 30.2049
RightForeArm  -6.46866 18.9091 6.24893
RightHand  -1.12181 2.4434 -16.7384
LeftUpLeg  -19.3994 2.37554 5.15515
LeftLeg  58.379 2.45382 4.84094
LeftFoot  2.1347 0.195821 -1.78046
LeftToes  1.00041e-010 1.90862e-010 2.54823e-011
95
root  -3.98875 40.0071 -3.92327 90.1622 -87.3064 -97.9124
RightUpLeg  3.12509 -10.6452 1.28191
RightLeg  17.5762 -3.02997 3.43844
RightFoot  -11.4528 -0.0801947 -3.41923
RightToes  1.74622e-010 0 -3.6325e-017
Spine  5.1639 0.811232 14.3643
Spine1  10.9756 3.25415 -4.61952
HEad  -4.83342 -0.000144781 -4.4875
LeftShoulder1  9.05691 -12.6409 -48.9734
LeftArm  0.202575 20.2062 -28.399
LeftForeArm  21.456 -20.2913 -4.15392
LeftHand  -0.244104 0.0205437 5.32207
RightShoulder  6.51376 10.2402 41.1847
RightArm  10.8044 8.40589 30.5431
RightForeArm  -8.72443 21.8578 5.52936
RightHand  -1.08258 2.2106 -16.6439
LeftUpLeg  -20.9625 3.28234 4.10514
LeftLeg  49.8702 2.57388 3.69863
LeftFoot  0.233192 0.229003 -2.27696
LeftToes  1.00041e-010 1.90862e-010 2.54823e-011
96
root  -5.47309 39.9916 -4.04289 105.078 -87.4794 -112.645
RightUpLeg  6.20475 -10.0693 0.516118
RightLeg  16.1623 -2.76628 4.08223
RightFoot  -13.0376 -0.133759 -3.04597
RightToes  1.74622e-010 0 -3.6325e-017
Spine  4.64544 1.26692 14.6275
Spine1  11.0931 3.86451 -5.85531
HEad  -5.23573 0.217095 -4.97675
LeftShoulder1  9.09177 -12.6812 -49.0401
LeftArm  -0.281462 20.9989 -28.0635
LeftForeArm  22.7518 -18.0651 -4.72995
LeftHand  -0.244104 0.0205437 5.32207
RightShoulder  6.43958 10.2823 40.5417
RightArm  10.3659 11.335 30.8159
RightForeArm  -8.32103 24.4289 5.59464
RightHand  -1.09973 2.29114 -16.7291
LeftUpLeg  -21.589 4.94355 3.14136
LeftLeg  38.891 2.69434 2.68712
LeftFoot  -0.272244 0.299943 -3.0741
LeftToes  1.00041e-010 1.90862e-010 2.54823e-011
97
root  -6.96606 39.942 -4.14331 117.543 -87.3391 -124.658
RightUpLeg  8.93157 -9.60337 0.133282
RightLeg  14.7219 -2.52621 4.40406
RightFoot  -14.1833 -0.175788 -3.20312
RightToes  1.74622e-010 0 -3.6325e-017
Spine  3.82618 1.67472 15.1266
Spine1  11.2809 4.44788 -7.35939
HEad  -5.70277 0.403951 -5.30402
LeftShoulder1  9.11526 -12.7287 -49.0231
LeftArm  -1.70957 21.7024 -27.7605
LeftForeArm  24.577 -15.5455 -5.45242
LeftHand  -0.244104 0.0205437 5.32207
RightShoulder  6.36037 10.3096 39.9117
RightArm  9.07474 13.5096 31.0538
RightForeArm  -7.08494 26.8709 6.14783
RightHand  -1.15682 2.52493 -17.0779
LeftUpLeg  -21.1871 7.97558 1.69267
LeftLeg  25.6158 1.65989 1.49789
LeftFoot  0.00422246 0.319014 -3.21331
LeftToes  1.00041e-010 1.90862e-010 2.54823e-011
98
root  -8.46147 39.8858 -4.22668 134.008 -86.8948 -140.798
RightUpLeg  11.9438 -9.22622 -0.36673
RightLeg  12.9124 -1.75596 4.51172
RightFoot  -15.0943 -0.210922 -3.3351
RightToes  1.74622e-010 0 -3.6325e-017
Spine  3.236 2.14397 15.4955
Spine1  11.5032 5.20196 -9.02568
HEad  -6.14222 0.685322 -5.57696
LeftShoulder1  9.13378 -12.7574 -49.0361
LeftArm  -3.36943 22.5742 -27.4625
LeftForeArm  26.1898 -13.2576 -5.98308
LeftHand  -0.244104 0.0205437 5.32207
RightShoulder  6.31125 10.3383 39.484
RightArm  8.22205 14.9405 31.136
RightForeArm  -6.44207 29.1881 6.67728
RightHand  -1.17269 2.51122 -17.3355
LeftUpLeg  -19.5348 9.93307 0.822586
LeftLeg  11.0178 2.06152 -0.661686
LeftFoot  0.586807 0.348444 -3.3637
LeftToes  1.00041e-010 1.90862e-010 2.54823e-011
99
root  -10.034 39.6797 -4.27378 145.335 -86.1324 -152.097
RightUpLeg  15.0478 -9.34913 -1.20404
RightLeg  12.0285 -0.154964 4.60937
RightFoot  -16.6643 -0.223921 -2.43701
RightToes  1.74622e-010 0 -3.6325e-017
Spine  2.90703 2.50076 15.8094
Spine1  11.7027 5.84844 -10.3143
HEad  -6.64475 1.13606 -5.80637
LeftShoulder1  9.13274 -12.7152 -49.1581
LeftArm  -4.73448 23.6129 -27.1514
LeftForeArm  27.0068 -11.5214 -6.20547
LeftHand  -0.244104 0.0205437 5.32207
RightShoulder  6.32257 10.3892 39.4023
RightArm  7.80888 15.8851 31.0973
RightForeArm  -5.90745 30.9984 7.10899
RightHand  -1.12926 2.20484 -17.3557
LeftUpLeg  -17.2698 3.44883 3.68629
LeftLeg  -1.07895 12.2806 -5.00077
LeftFoot  0.724038 0.421904 -4.05397
LeftToes  1.00041e-010 1.90862e-010 2.54823e-011
100
root  -11.7178 39.3338 -4.27189 145.491 -85.6929 -152.274
RightUpLeg  17.7483 -10.1255 -2.15438
RightLeg  12.6474 1.64499 4.71955
RightFoot  -18.3317 -0.185825 -0.99369
RightToes  1.74622e-010 0 -3.6325e-017
Spine  2.42008 2.55574 16.243
Spine1  11.8972 6.08262 -11.1531
HEad  -7.27364 1.53278 -5.90315
LeftShoulder1  9.11387 -12.6396 -49.2859
LeftArm  -5.67042 24.5868 -26.8892
LeftForeArm  27.161 -10.2455 -6.24897
LeftHand  -0.244104 0.0205437 5.32207
RightShoulder  6.35052 10.4081 39.5348
RightArm  7.58767 16.1394 31.1562
RightForeArm  -5.18238 32.1775 7.38106
RightHand  -1.09344 1.95758 -17.3622
LeftUpLeg  -17.0952 3.7908 3.382
LeftLeg  -5.09909 15.9561 -6.79587
LeftFoot  -0.621862 0.436579 -4.57031
LeftToes  1.00041e-010 1.90862e-010 2.54823e-011
101
root  -13.4662 39.0206 -4.23772 145.085 -85.7499 -151.727
RightUpLeg  20.0158 -11.4487 -3.44407
RightLeg  14.0098 3.54268 4.50353
RightFoot  -19.0476 -0.120599 0.119724
RightToes  1.74622e-010 0 -3.6325e-017
Spine  1.67638 2.57508 16.3222
Spine1  12.2347 6.2606 -11.7234
HEad  -7.83523 1.62412 -5.8625
LeftShoulder1  9.08294 -12.5758 -49.313
LeftArm  -6.17622 25.4166 -26.7354
LeftForeArm  27.1919 -9.3143 -6.23557
LeftHand  -0.244104 0.0205437 5.32207
RightShoulder  6.37882 10.4 39.7539
RightArm  7.28173 15.1178 31.2357
RightForeArm  -4.53688 32.872 7.53292
RightHand  -1.11459 2.04215 -17.4959
LeftUpLeg  -17.5304 3.77114 2.50331
LeftLeg  -3.33956 19.7398 -6.97248
LeftFoot  -0.42271 0.24636 -2.603
LeftToes  1.00041e-010 1.90862e-010 2.54823e-011
102
root  -15.3225 38.741 -4.20065 155.541 -85.5542 -162.203
RightUpLeg  22.1262 -12.9493 -5.80132
RightLeg  16.2298 6.5691 3.95226
RightFoot  -19.3036 0.015714 2.04208
RightToes  1.74622e-010 0 -3.6325e-017
Spine  0.893921 3.10026 15.3582
Spine1  12.5354 6.77991 -11.7297
HEad  -8.0043 1.5155 -5.75584
LeftShoulder1  9.02174 -12.4667 -49.3147
LeftArm  -6.3732 26.2409 -26.5784
LeftForeArm  27.3401 -8.76473 -6.20212
LeftHand  -0.244104 0.0205437 5.32207
RightShoulder  6.50037 10.4659 40.3714
RightArm  7.10542 12.7296 30.9612
RightForeArm  -4.22394 32.8048 7.49692
RightHand  -1.177 2.3988 -17.6387
LeftUpLeg  -18.2768 4.46558 0.761647
LeftLeg  2.15784 21.216 -5.01076
LeftFoot  2.90342 -0.280718 1.95814
LeftToes  1.00041e-010 1.90862e-010 2.54823e-011
103
root  -17.2289 38.5512 -4.19499 177.904 -85.0858 175.043
RightUpLeg  23.6126 -12.9695 -9.00638
RightLeg  19.7503 9.04416 3.62838
RightFoot  -18.2039 0.249072 6.37724
RightToes  1.74622e-010 0 -3.6325e-017
Spine  0.410577 3.84363 12.5297
Spine1  12.5643 7.27488 -10.9689
HEad  -7.72694 1.4787 -5.60545
LeftShoulder1  8.92763 -12.2771 -49.3854
LeftArm  -6.45808 26.9926 -26.2331
LeftForeArm  27.3462 -8.51368 -6.15601
LeftHand  -0.244104 0.0205437 5.32207
RightShoulder  6.75762 10.5941 41.6892
RightArm  7.64419 9.61591 30.4417
RightForeArm  -4.33539 31.0101 7.01757
RightHand  -1.26602 2.91965 -17.7928
LeftUpLeg  -19.0614 8.64449 -3.17329
LeftLeg  8.61899 16.6972 -1.61598
LeftFoot  7.23946 -1.18505 7.01573
LeftToes  1.00041e-010 1.90862e-010 2.54823e-011
104
root  -19.0642 38.529 -4.19147 -157.727 -84.7726 150.15
RightUpLeg  22.582 -10.4656 -11.1707
RightLeg  26.4797 7.54226 3.77409
RightFoot  -12.8368 0.0438649 11.4004
RightToes  1.74622e-010 0 -3.6325e-017
Spine  0.392438 4.03885 8.90216
Spine1  12.0685 7.15762 -9.96151
HEad  -7.39115 1.55246 -5.51049
LeftShoulder1  8.8576 -12.1305 -49.456
LeftArm  -6.57915 27.2207 -25.7479
LeftForeArm  27.0068 -8.34261 -6.09804
LeftHand  -0.244104 0.0205437 5.32207
RightShoulder  7.00477 10.6411 43.1672
RightArm  9.31559 6.49058 30.6107
RightForeArm  -5.58867 26.588 6.00503
RightHand  -1.38965 3.60029 -18.0645
LeftUpLeg  -19.4891 13.4427 -7.95154
LeftLeg  14.103 10.223 1.47139
LeftFoot  8.12529 -1.72489 9.78113
LeftToes  1.00041e-010 1.90862e-010 2.54823e-011
105
root  -20.7177 38.6218 -4.14223 -138.019 -84.4365 130.091
RightUpLeg  17.8806 -8.04354 -12.1773
RightLeg  37.3388 4.24722 3.16167
RightFoot  -1.94164 -1.11006 13.5828
RightToes  1.74622e-010 0 -3.6325e-017
Spine  0.9798 3.70994 6.31525
Spine1  11.1731 6.66906 -9.54336
HEad  -7.52621 1.64728 -5.78246
LeftShoulder1  8.86756 -12.155 -49.4346
LeftArm  -6.87895 26.5263 -25.4419
LeftForeArm  26.5109 -8.32101 -6.00794
LeftHand  -0.244104 0.0205437 5.32207
RightShoulder  7.11727 10.6301 43.9343
RightArm  8.53553 3.87363 31.9036
RightForeArm  -4.98869 19.1606 5.97378
RightHand  -1.44262 4.01 -17.9518
LeftUpLeg  -18.7109 14.705 -10.7827
LeftLeg  17.9931 8.06728 3.33896
LeftFoot  4.75994 -1.42577 9.80723
LeftToes  1.00041e-010 1.90862e-010 2.54823e-011
106
root  -22.1097 38.7097 -4.0798 -128.857 -83.187 120.686
RightUpLeg  10.4163 -4.88704 -12.4669
RightLeg  49.5067 1.32146 1.31839
RightFoot  9.37965 -2.2055 12.433
RightToes  1.74622e-010 0 -3.6325e-017
Spine  2.24476 3.60659 4.42702
Spine1  10.6156 6.47352 -9.79313
HEad  -8.37976 1.84861 -6.60566
LeftShoulder1  8.92502 -12.2767 -49.3722
LeftArm  -7.38624 24.9794 -25.5278
LeftForeArm  25.9322 -8.96423 -5.87022
LeftHand  -0.244104 0.0205437 5.32207
RightShoulder  7.21035 10.7713 44.0754
RightArm  -0.899062 2.17644 33.2047
RightForeArm  4.69386 9.35402 8.28802
RightHand  -1.23773 3.32502 -16.5898
LeftUpLeg  -16.8973 14.4547 -12.0274
LeftLeg  20.1124 8.82764 3.91064
LeftFoot  0.560662 -0.919667 8.78252
LeftToes  1.00041e-010 1.90862e-010 2.54823e-011
107
root  -23.3853 38.8649 -4.0459 -128.889 -81.5684 120.31
RightUpLeg  2.66044 -1.40057 -12.5055
RightLeg  59.542 -0.114672 -0.6596
RightFoot  14.228 -2.20358 10.0821
RightToes  1.74622e-010 0 -3.6325e-017
Spine  3.70119 3.74801 2.60096
Spine1  10.7128 6.40173 -9.81215
HEad  -9.77854 2.28909 -7.64874
LeftShoulder1  8.95842 -12.3357 -49.3727
LeftArm  -7.57811 22.9842 -25.8064
LeftForeArm  24.8038 -10.8364 -5.66264
LeftHand  -0.244104 0.0205437 5.32207
RightShoulder  7.4354 11.1023 44.4358
RightArm  -4.89917 1.03386 33.9355
RightForeArm  11.3841 1.49235 7.53516
RightHand  -0.888662 1.8031 -14.475
LeftUpLeg  -14.4283 15.9233 -12.9091
LeftLeg  20.4726 8.40974 3.69358
LeftFoot  -1.85065 -0.673037 8.24386
LeftToes  1.00041e-010 1.90862e-010 2.54823e-011
